<svg width="368" height="260" viewBox="0 0 368 260" fill="none" xmlns="http://www.w3.org/2000/svg">
<g clip-path="url(#clip0_445_621)">
<path d="M221.337 256.218V206.951" stroke="#3F3D56" stroke-width="0.424375" stroke-miterlimit="10"/>
<path d="M221.337 210.434C223.261 210.434 224.821 208.874 224.821 206.951C224.821 205.027 223.261 203.467 221.337 203.467C219.413 203.467 217.853 205.027 217.853 206.951C217.853 208.874 219.413 210.434 221.337 210.434Z" fill="#FF9994"/>
<path d="M221.337 221.137C221.337 221.137 221.835 210.434 232.036 211.678L221.337 221.137Z" fill="#FF9994"/>
<path d="M221.337 255.26C221.337 255.26 219.098 235.565 232.036 234.57" stroke="#3F3D56" stroke-width="0.424375" stroke-miterlimit="10"/>
<path d="M232.036 238.054C233.96 238.054 235.52 236.494 235.52 234.57C235.52 232.646 233.96 231.086 232.036 231.086C230.112 231.086 228.553 232.646 228.553 234.57C228.553 236.494 230.112 238.054 232.036 238.054Z" fill="#FF9994"/>
<path d="M240.098 123.561C239.674 125.791 239.165 127.997 238.572 130.181C238.508 130.435 238.436 130.684 238.364 130.938H230.117C229.415 130.939 228.741 131.218 228.245 131.715C227.748 132.212 227.469 132.885 227.468 133.587V157.099C227.218 157.564 226.964 158.026 226.711 158.488C225.401 160.872 224.039 163.23 222.646 165.558C199.935 203.389 168.258 235.047 130.414 257.737L132.655 252.68C131.833 252.623 131.008 252.567 130.187 252.51C112.304 251.287 94.36 249.932 76.8969 245.913C58.6276 241.708 40.7559 234.415 26.4379 222.322C12.1161 210.226 1.61714 192.952 0.159957 174.263C-0.325938 167.84 0.323665 161.381 2.07897 155.184C5.43595 143.254 12.771 132.52 23.3534 126.169C39.9762 116.196 61.6594 118.229 79.1829 126.525C96.7028 134.818 110.964 148.545 124.888 162.034C110.83 137.926 91.2555 117.494 67.7718 102.416C59.9902 97.435 51.7318 92.9992 45.116 86.5461C38.5039 80.0968 33.6252 71.0549 34.7948 61.8919C36.1232 51.4988 44.6353 43.6113 53.1624 37.5291C56.5687 35.0992 60.0848 32.7943 63.7107 30.6748C73.9409 24.6797 85.0078 20.1568 96.6952 18.4802C112.527 16.2055 129.627 19.6572 141.765 30.073C155.439 41.8097 161.048 60.7375 160.515 78.844C168.94 66.5964 181.933 57.2214 196.607 56.824C211.84 56.4153 226.321 66.04 233.951 79.2338C241.578 92.4239 242.948 108.593 240.098 123.561Z" fill="#FFEFEE"/>
<path d="M68.1673 256.391V225.629" stroke="#3F3D56" stroke-width="0.529956" stroke-miterlimit="10"/>
<path d="M68.1672 229.979C70.5698 229.979 72.5174 228.032 72.5174 225.629C72.5174 223.227 70.5698 221.279 68.1672 221.279C65.7647 221.279 63.817 223.227 63.817 225.629C63.817 228.032 65.7647 229.979 68.1672 229.979Z" fill="#F66962"/>
<path d="M68.1673 244.588C68.1673 244.588 67.5458 231.222 54.8059 232.776L68.1673 244.588Z" fill="#F66962"/>
<path d="M143.715 174.427C152.638 173.642 160.88 172.724 169.526 170.277C177.907 167.906 185.972 163.936 191.938 157.453C198.355 150.481 201.819 141.426 204.263 132.413C205.625 127.387 206.745 122.291 207.801 117.194C208.948 111.663 209.966 106.108 210.857 100.528C212.63 89.4216 213.896 78.2497 214.654 67.0123C214.746 65.6483 214.83 64.2837 214.906 62.9187C214.954 62.0767 213.644 62.0794 213.597 62.9187C212.974 73.9955 211.853 85.0292 210.234 96.0197C208.636 106.818 206.593 117.569 203.999 128.174C201.803 137.157 198.958 146.281 193.324 153.76C188.041 160.773 180.41 165.356 172.17 168.096C163.786 170.884 154.945 171.997 146.184 172.825C145.109 172.926 144.791 173.023 143.715 173.118C142.882 173.191 142.874 174.501 143.715 174.427Z" fill="white"/>
<path d="M2.83532 156.15C14.0927 156.774 25.2356 158.738 36.0284 161.999C46.8258 165.253 57.2017 169.77 66.9413 175.454C76.3522 180.952 85.0887 187.53 92.9731 195.054C100.625 202.361 107.445 210.493 113.308 219.301C119.197 228.13 124.078 237.592 127.859 247.51C128.32 248.724 128.764 249.944 129.191 251.17C129.467 251.961 130.733 251.62 130.454 250.822C126.917 240.695 122.254 230.997 116.553 221.911C110.853 212.824 104.164 204.396 96.6069 196.783C88.9293 189.051 80.3846 182.232 71.1426 176.461C51.7375 164.374 29.7419 157.061 6.96207 155.124C5.58794 155.009 4.21236 154.914 2.83533 154.84C1.99321 154.794 1.99578 156.104 2.83532 156.15Z" fill="white"/>
<path d="M64.065 32.2099C71.2628 34.499 78.0853 37.8329 84.3142 42.1049C90.6791 46.4999 96.484 51.6551 101.6 57.4561C106.992 63.5587 111.785 70.1646 115.914 77.183C120.294 84.5934 124.099 92.329 127.295 100.322C130.586 108.527 133.355 116.933 135.583 125.489C137.849 134.146 139.618 142.925 140.883 151.784C142.142 160.548 142.903 169.377 143.164 178.228C143.427 186.691 143.177 195.162 142.415 203.595C141.718 211.463 140.445 219.268 138.606 226.95C136.974 233.887 134.672 240.65 131.735 247.144C131.055 248.618 130.333 250.071 129.569 251.505C129.173 252.248 130.303 252.91 130.7 252.166C133.946 245.963 136.538 239.439 138.434 232.701C140.561 225.199 142.103 217.543 143.046 209.803C144.091 201.405 144.6 192.949 144.57 184.486C144.551 175.596 144.022 166.714 142.985 157.884C141.947 148.944 140.407 140.069 138.371 131.302C136.34 122.521 133.764 113.875 130.657 105.415C127.663 97.2242 124.078 89.262 119.931 81.591C115.98 74.2709 111.377 67.3226 106.176 60.8309C101.237 54.6499 95.5984 49.0621 89.3729 44.1792C83.3698 39.485 76.7363 35.6586 69.6672 32.8125C67.9397 32.1249 66.1884 31.5031 64.4131 30.9471C63.6073 30.6935 63.2625 31.9574 64.065 32.2099Z" fill="white"/>
<path d="M141.742 260C193.477 260 235.416 258.306 235.416 256.215C235.416 254.125 193.477 252.43 141.742 252.43C90.0078 252.43 48.0685 254.125 48.0685 256.215C48.0685 258.306 90.0078 260 141.742 260Z" fill="#FFD1CF"/>
<path d="M224.504 137.671C224.458 137.875 224.428 138.083 224.414 138.292L208.155 147.671L204.203 145.396L199.991 150.912L208.445 156.937L226.993 142.304C227.75 142.584 228.574 142.627 229.355 142.427C230.137 142.228 230.839 141.795 231.368 141.186C231.898 140.578 232.23 139.823 232.32 139.021C232.409 138.219 232.253 137.409 231.871 136.699C231.49 135.988 230.901 135.411 230.183 135.043C229.465 134.675 228.652 134.535 227.852 134.64C227.052 134.746 226.304 135.092 225.706 135.634C225.108 136.175 224.689 136.886 224.504 137.671Z" fill="#FFB8B8"/>
<path d="M187.477 143.426L200.278 152.55L206.004 145.371L193.56 135.386C193.024 134.956 192.407 134.64 191.745 134.458C191.083 134.275 190.391 134.23 189.711 134.324C189.031 134.418 188.378 134.65 187.791 135.006C187.204 135.361 186.695 135.833 186.297 136.392C185.521 137.481 185.209 138.834 185.43 140.153C185.651 141.472 186.388 142.649 187.477 143.426Z" fill="#F66962"/>
<path d="M161.051 247.533L165.539 248.709L172.212 231.956L165.587 230.22L161.051 247.533Z" fill="#FFB8B8"/>
<path d="M173.104 255.146L158.997 251.449L160.425 245.999L169.081 248.267C170.527 248.646 171.763 249.583 172.517 250.873C173.271 252.163 173.482 253.7 173.104 255.146Z" fill="#2F2E41"/>
<path d="M200.951 250.729L205.519 249.913L204.546 231.906L197.804 233.111L200.951 250.729Z" fill="#FFB8B8"/>
<path d="M215.086 252.581L200.73 255.146L199.739 249.599L208.549 248.025C209.277 247.895 210.024 247.91 210.747 248.068C211.469 248.227 212.154 248.526 212.761 248.949C213.368 249.372 213.886 249.911 214.285 250.534C214.684 251.157 214.956 251.853 215.086 252.581Z" fill="#2F2E41"/>
<path d="M191.957 118.302C193.082 118.576 193.998 119.723 194.548 121.051C195.055 122.447 195.399 123.897 195.571 125.372C196.004 128.118 196.419 131.091 195.525 133.635C194.477 136.617 191.686 138.178 189.265 137.444C186.844 136.71 184.919 133.956 184.261 130.785C183.662 127.581 184.048 124.271 185.368 121.291C186.055 119.726 187.003 118.281 188.263 117.575C188.881 117.201 189.618 117.075 190.325 117.222C191.031 117.37 191.656 117.779 192.074 118.369" fill="#2F2E41"/>
<path d="M198.325 168.029L207.022 245.918L199.839 248.646L186.592 196.415L168.15 244.171L160.288 244.608C160.288 244.608 171.075 170.3 179.069 168.611L198.325 168.029Z" fill="#2F2E41"/>
<path d="M191.021 128.242C196.155 128.242 200.317 124.08 200.317 118.946C200.317 113.812 196.155 109.65 191.021 109.65C185.887 109.65 181.725 113.812 181.725 118.946C181.725 124.08 185.887 128.242 191.021 128.242Z" fill="#FFB8B8"/>
<path d="M195.011 132.142L184.965 130.831C184.965 130.831 178.414 138.693 178.851 152.233C179.287 165.772 177.759 169.922 177.759 169.922L198.704 170.3C195.676 166.137 208.341 142.225 195.011 132.142Z" fill="#F66962"/>
<path d="M200.407 172.193C200.198 172.194 199.989 172.212 199.782 172.246L186.931 158.566L188.241 154.198L181.908 151.359L177.977 160.968L196.466 175.676C196.367 176.476 196.514 177.288 196.887 178.003C197.26 178.718 197.842 179.303 198.556 179.679C199.269 180.055 200.08 180.205 200.881 180.109C201.682 180.013 202.435 179.676 203.039 179.141C203.644 178.607 204.071 177.902 204.265 177.119C204.459 176.336 204.409 175.512 204.123 174.758C203.838 174.003 203.329 173.354 202.665 172.896C202.001 172.437 201.214 172.192 200.407 172.193Z" fill="#FFB8B8"/>
<path d="M186.331 137.464L180.379 152.014L188.678 155.945L195.55 141.546C195.846 140.926 196.012 140.253 196.038 139.567C196.064 138.881 195.95 138.197 195.703 137.557C195.456 136.916 195.08 136.333 194.6 135.843C194.119 135.353 193.544 134.966 192.908 134.706C192.295 134.455 191.639 134.328 190.977 134.331C190.315 134.334 189.659 134.467 189.049 134.723C188.438 134.979 187.884 135.353 187.417 135.823C186.951 136.294 186.582 136.851 186.331 137.464Z" fill="#F66962"/>
<path d="M188.589 127.397C190.046 126.557 190.201 124.53 190.003 122.86C189.805 121.19 189.475 119.329 190.456 117.963C191.628 116.334 193.981 116.301 195.988 116.248C197.994 116.195 200.437 115.607 200.957 113.669C201.3 112.388 200.565 111.014 199.511 110.21C198.456 109.406 197.137 109.05 195.855 108.712C192.986 107.957 190.024 107.194 187.087 107.61C184.177 108.021 181.547 109.562 179.765 111.898C177.982 114.234 177.191 117.177 177.563 120.092C178.038 123.821 178.728 125.449 178.275 127.093C177.432 130.155 173.798 132.122 173.725 135.297C173.669 137.78 175.862 139.696 178.003 140.957C179.7 141.958 181.533 142.806 183.489 143.041C185.446 143.275 187.552 142.826 189.01 141.5C190.889 139.79 191.354 136.932 190.815 134.449C190.276 131.965 188.894 129.76 187.526 127.618" fill="#2F2E41"/>
</g>
<path d="M193.876 43.1597C201.443 43.1597 207.577 37.0253 207.577 29.4582C207.577 21.8911 201.443 15.7567 193.876 15.7567C186.309 15.7567 180.174 21.8911 180.174 29.4582C180.174 37.0253 186.309 43.1597 193.876 43.1597Z" fill="#FFC0BD"/>
<path d="M193.876 41.1045C200.308 41.1045 205.522 35.8903 205.522 29.4582C205.522 23.0262 200.308 17.812 193.876 17.812C187.444 17.812 182.23 23.0262 182.23 29.4582C182.23 35.8903 187.444 41.1045 193.876 41.1045Z" fill="white"/>
<path d="M197.594 35.6239C197.056 35.6239 196.301 35.4295 195.17 34.7979C193.765 34.0471 192.482 33.0874 191.364 31.9517C190.208 30.8503 189.242 29.5649 188.506 28.1475C187.492 26.3029 187.665 25.336 187.858 24.9227C188.081 24.4709 188.432 24.0944 188.867 23.8401C189.117 23.6767 189.381 23.5366 189.656 23.4217C189.683 23.4098 189.709 23.3985 189.732 23.3883C189.823 23.3368 189.924 23.3052 190.028 23.2957C190.132 23.2862 190.237 23.299 190.336 23.3333C190.556 23.439 190.752 23.589 190.911 23.7738C191.483 24.4164 191.967 25.1335 192.347 25.9056C192.504 26.1726 192.6 26.4706 192.629 26.7787C192.606 27.0836 192.483 27.3723 192.278 27.5994C192.242 27.6487 192.206 27.6957 192.171 27.7414C191.962 28.0168 191.916 28.0963 191.946 28.2384C192.007 28.5239 192.938 28.7721 193.691 29.5229C194.443 30.2737 194.796 31.3044 195.083 31.3655C195.231 31.3972 195.312 31.3493 195.596 31.1323C195.637 31.1012 195.679 31.069 195.723 31.0368C195.95 30.8221 196.244 30.6907 196.556 30.664H196.558C196.87 30.6961 197.171 30.8016 197.435 30.9718C198.198 31.3588 198.912 31.8376 199.559 32.3974C199.744 32.5559 199.895 32.751 200.001 32.9704C200.035 33.0695 200.048 33.1747 200.039 33.2791C200.029 33.3835 199.998 33.4847 199.946 33.5761C199.936 33.5989 199.925 33.624 199.913 33.6518C199.797 33.9264 199.656 34.1898 199.492 34.4387C199.237 34.8732 198.86 35.2234 198.407 35.4458C198.153 35.566 197.875 35.6269 197.594 35.6239Z" fill="#F66962"/>
<path d="M287.731 223.334C295.298 223.334 301.432 217.2 301.432 209.633C301.432 202.066 295.298 195.931 287.731 195.931C280.164 195.931 274.029 202.066 274.029 209.633C274.029 217.2 280.164 223.334 287.731 223.334Z" fill="#F66962"/>
<path d="M292.869 204.152H282.593C282.139 204.152 281.703 204.336 281.382 204.663C281.061 204.99 280.881 205.433 280.88 205.896V213.369C280.881 213.832 281.061 214.275 281.382 214.602C281.703 214.929 282.139 215.113 282.593 215.113H292.869C293.323 215.113 293.758 214.929 294.079 214.602C294.401 214.275 294.581 213.832 294.582 213.369V205.896C294.581 205.433 294.401 204.99 294.079 204.663C293.758 204.336 293.323 204.152 292.869 204.152ZM292.869 205.148C292.93 205.149 292.991 205.157 293.051 205.173L287.732 209.492L282.445 205.164C282.493 205.154 282.543 205.148 282.593 205.148H292.869ZM292.869 214.117H282.593C282.398 214.116 282.212 214.038 282.074 213.898C281.937 213.757 281.859 213.567 281.859 213.369V205.963L287.424 210.519C287.511 210.59 287.619 210.629 287.73 210.629C287.841 210.629 287.949 210.591 288.036 210.52L293.603 205.999V213.369C293.603 213.567 293.525 213.757 293.388 213.898C293.25 214.038 293.064 214.116 292.869 214.117Z" fill="white"/>
<path d="M347.921 141.345C347.872 141.345 347.841 141.344 347.83 141.343L341.933 141.344V140.464H347.852C347.989 140.469 350.784 140.549 353.36 137.388C357.199 132.678 360.352 121.016 353.57 92.2129C344.451 53.4826 352.056 19.2666 355.75 6.35351C355.932 5.71465 355.964 5.04174 355.845 4.38797C355.725 3.7342 355.457 3.11747 355.061 2.58651C354.666 2.05555 354.153 1.62491 353.565 1.32861C352.976 1.03232 352.328 0.87849 351.67 0.87928H263.599C262.929 0.880188 262.269 1.04073 261.673 1.34789C261.076 1.65504 260.559 2.10014 260.164 2.64707C258.6 4.82337 256.453 9.00424 255.109 16.5639L254.254 16.4085C255.626 8.68459 257.843 4.38072 259.461 2.13015C259.937 1.47113 260.559 0.934787 261.278 0.564671C261.997 0.194556 262.792 0.00109506 263.599 2.39252e-06H351.67C352.462 -0.000768529 353.244 0.184776 353.953 0.541977C354.662 0.899178 355.28 1.41825 355.756 2.05818C356.233 2.69811 356.556 3.44137 356.7 4.22923C356.844 5.01709 356.804 5.82797 356.585 6.59781C352.911 19.4439 345.344 53.4824 354.416 92.0094C361.293 121.218 357.987 133.132 354.002 137.983C351.374 141.183 348.479 141.345 347.921 141.345Z" fill="#FFDFDD"/>
<path d="M332.053 157.392C332.003 157.392 331.972 157.39 331.962 157.39L326.064 157.39V156.511H331.983C332.121 156.515 334.916 156.596 337.492 153.435C341.33 148.725 344.483 137.063 337.701 108.26C328.582 69.5295 336.188 35.3134 339.881 22.4003C340.063 21.7615 340.095 21.0886 339.976 20.4348C339.856 19.781 339.588 19.1643 339.193 18.6333C338.797 18.1024 338.285 17.6717 337.696 17.3754C337.108 17.0791 336.459 16.9253 335.801 16.9261H247.73C247.061 16.927 246.401 17.0875 245.804 17.3947C245.207 17.7019 244.69 18.147 244.296 18.6939C242.731 20.8702 240.584 25.0511 239.241 32.6108L238.385 32.4553C239.757 24.7314 241.974 20.4275 243.592 18.177C244.068 17.5179 244.69 16.9816 245.409 16.6115C246.128 16.2414 246.923 16.0479 247.73 16.0468H335.802C336.594 16.046 337.375 16.2316 338.085 16.5888C338.794 16.946 339.411 17.4651 339.888 18.105C340.364 18.7449 340.687 19.4882 340.831 20.276C340.975 21.0639 340.936 21.8748 340.716 22.6446C337.042 35.4907 329.476 69.5292 338.547 108.056C345.424 137.265 342.118 149.179 338.134 154.03C335.506 157.23 332.61 157.392 332.053 157.392Z" fill="#FFDFDD"/>
<path d="M316.184 173.439C316.135 173.439 316.104 173.437 316.093 173.437L229.379 173.437C228.544 173.438 227.722 173.232 226.984 172.838C226.246 172.443 225.615 171.871 225.146 171.172C224.677 170.474 224.385 169.67 224.294 168.831C224.204 167.991 224.319 167.142 224.628 166.358C227.774 158.409 232.01 139.338 225.033 100.923C216.793 55.5607 224.17 39.1668 227.724 34.2238C228.199 33.5648 228.822 33.0285 229.541 32.6583C230.26 32.2882 231.055 32.0948 231.861 32.0937H319.933C320.725 32.0929 321.507 32.2785 322.216 32.6357C322.925 32.9929 323.542 33.5119 324.019 34.1519C324.496 34.7918 324.819 35.5351 324.962 36.3229C325.106 37.1108 325.067 37.9217 324.847 38.6915C321.173 51.5376 313.607 85.5761 322.678 124.103C329.555 153.312 326.249 165.226 322.265 170.077C319.637 173.277 316.741 173.439 316.184 173.439ZM231.861 32.973C231.192 32.9739 230.532 33.1344 229.935 33.4416C229.338 33.7487 228.822 34.1938 228.427 34.7408C224.939 39.592 217.709 55.7367 225.888 100.764C232.554 137.462 229.321 156.868 225.435 166.685C225.173 167.333 225.075 168.036 225.149 168.732C225.223 169.428 225.467 170.094 225.86 170.67C226.249 171.252 226.773 171.728 227.387 172.057C228 172.387 228.684 172.559 229.379 172.558H316.114C316.251 172.565 319.047 172.643 321.623 169.482C325.462 164.771 328.614 153.11 321.832 124.307C312.713 85.5763 320.319 51.3603 324.012 38.4472C324.194 37.8083 324.227 37.1354 324.107 36.4817C323.988 35.8279 323.72 35.2112 323.324 34.6802C322.928 34.1492 322.416 33.7186 321.827 33.4223C321.239 33.126 320.59 32.9722 319.933 32.973H231.861Z" fill="#3F3D56"/>
<path d="M304.953 71.661H235.826C234.904 71.661 234.019 71.2904 233.367 70.6309C232.715 69.9713 232.348 69.0767 232.348 68.1439C232.348 67.2111 232.715 66.3165 233.367 65.6569C234.019 64.9973 234.904 64.6268 235.826 64.6268H304.953C305.875 64.6268 306.76 64.9973 307.412 65.6569C308.064 66.3165 308.431 67.2111 308.431 68.1439C308.431 69.0767 308.064 69.9713 307.412 70.6309C306.76 71.2904 305.875 71.661 304.953 71.661Z" fill="#FF9994"/>
<path d="M304.845 86.5028H235.718C234.796 86.5028 233.911 86.1323 233.259 85.4727C232.606 84.8131 232.24 83.9185 232.24 82.9857C232.24 82.0529 232.606 81.1583 233.259 80.4988C233.911 79.8392 234.796 79.4686 235.718 79.4686H304.845C305.767 79.4686 306.652 79.8392 307.304 80.4988C307.956 81.1583 308.323 82.0529 308.323 82.9857C308.323 83.9185 307.956 84.8131 307.304 85.4727C306.652 86.1323 305.767 86.5028 304.845 86.5028Z" fill="#FFD7D5"/>
<path d="M304.845 101.45H235.718C234.796 101.45 233.911 101.08 233.259 100.42C232.606 99.7608 232.24 98.8662 232.24 97.9334C232.24 97.0006 232.606 96.106 233.259 95.4464C233.911 94.7868 234.796 94.4163 235.718 94.4163H304.845C305.767 94.4163 306.652 94.7868 307.304 95.4464C307.956 96.106 308.323 97.0006 308.323 97.9334C308.323 98.8662 307.956 99.7608 307.304 100.42C306.652 101.08 305.767 101.45 304.845 101.45Z" fill="#FFD7D5"/>
<path d="M310.062 116.398H240.935C240.013 116.398 239.128 116.028 238.476 115.368C237.824 114.708 237.457 113.814 237.457 112.881C237.457 111.948 237.824 111.054 238.476 110.394C239.128 109.735 240.013 109.364 240.935 109.364H310.062C310.984 109.364 311.869 109.735 312.521 110.394C313.173 111.054 313.54 111.948 313.54 112.881C313.54 113.814 313.173 114.708 312.521 115.368C311.869 116.028 310.984 116.398 310.062 116.398Z" fill="#FFD7D5"/>
<path d="M310.062 131.346H240.935C240.013 131.346 239.128 130.975 238.476 130.316C237.824 129.656 237.457 128.762 237.457 127.829C237.457 126.896 237.824 126.001 238.476 125.342C239.128 124.682 240.013 124.312 240.935 124.312H310.062C310.984 124.312 311.869 124.682 312.521 125.342C313.173 126.001 313.54 126.896 313.54 127.829C313.54 128.762 313.173 129.656 312.521 130.316C311.869 130.975 310.984 131.346 310.062 131.346Z" fill="#FFD7D5"/>
<path d="M268.433 56.7134H235.826C234.904 56.7134 234.019 56.3428 233.367 55.6832C232.715 55.0236 232.348 54.129 232.348 53.1962C232.348 52.2635 232.715 51.3689 233.367 50.7093C234.019 50.0497 234.904 49.6791 235.826 49.6791H268.433C269.356 49.6791 270.24 50.0497 270.893 50.7093C271.545 51.3689 271.911 52.2635 271.911 53.1962C271.911 54.129 271.545 55.0236 270.893 55.6832C270.24 56.3428 269.356 56.7134 268.433 56.7134Z" fill="#F66962"/>
<path d="M264.223 155.554C264.924 152.549 268.222 151.564 270.917 151.674C272.62 151.79 274.31 152.061 275.965 152.482C277.697 152.874 279.413 153.338 281.119 153.83C284.249 154.732 287.346 155.824 290.527 156.529C293.176 157.117 296.054 157.461 298.695 156.65C301.233 155.871 303.387 153.957 304.078 151.311C304.729 148.818 303.835 146.091 301.446 144.952C299.267 143.913 296.515 144.441 295.435 146.791C294.217 149.441 295.434 152.33 297.362 154.248C298.458 155.288 299.658 156.21 300.943 156.998C302.248 157.897 303.7 158.555 305.231 158.941C307.747 159.484 310.743 158.683 312.04 156.254C312.328 155.704 312.501 155.099 312.549 154.479C312.626 153.634 311.321 153.639 311.245 154.479C311.025 156.898 308.223 158.031 306.128 157.766C304.713 157.529 303.362 156.999 302.16 156.209C301 155.525 299.9 154.74 298.874 153.864C297.097 152.309 295.431 149.75 296.625 147.323C297.597 145.347 300.13 145.366 301.671 146.641C303.537 148.184 303.205 150.986 301.974 152.819C300.611 154.848 298.141 155.699 295.812 155.791C293.281 155.89 290.771 155.303 288.353 154.608C285.347 153.745 282.372 152.78 279.352 151.967C277.638 151.506 275.91 151.09 274.165 150.766C272.515 150.398 270.82 150.279 269.135 150.414C266.413 150.731 263.635 152.333 262.965 155.203C262.772 156.029 264.03 156.381 264.223 155.554Z" fill="black"/>
<defs>
<clipPath id="clip0_445_621">
<rect width="367.885" height="242.188" fill="white" transform="translate(0 17.812)"/>
</clipPath>
</defs>
</svg>
